<svg width="64" height="64" viewBox="0 0 64 64" fill="none" xmlns="http://www.w3.org/2000/svg">
<path d="M32 0C38.329 0 44.5159 1.87677 49.7782 5.39297C55.0406 8.90918 59.1421 13.9069 61.5641 19.7541C63.9861 25.6014 64.6198 32.0355 63.3851 38.2429C62.1504 44.4503 59.1027 50.1521 54.6274 54.6274C50.1521 59.1027 44.4503 62.1504 38.2429 63.3851C32.0355 64.6198 25.6014 63.9861 19.7541 61.5641C13.9069 59.1421 8.90918 55.0406 5.39297 49.7782C1.87677 44.5159 0 38.329 0 32C0 23.5131 3.37142 15.3737 9.37258 9.37258C15.3737 3.37142 23.5131 0 32 0Z" fill="#DB3022"/>
<path d="M43.3215 31.2512C44.7514 31.2512 45.9106 30.092 45.9106 28.6621C45.9106 27.2322 44.7514 26.073 43.3215 26.073C41.8916 26.073 40.7324 27.2322 40.7324 28.6621C40.7324 30.092 41.8916 31.2512 43.3215 31.2512Z" fill="#F9BA8F"/>
<path d="M20.8804 31.2512C22.3103 31.2512 23.4694 30.092 23.4694 28.6621C23.4694 27.2322 22.3103 26.073 20.8804 26.073C19.4504 26.073 18.2913 27.2322 18.2913 28.6621C18.2913 30.092 19.4504 31.2512 20.8804 31.2512Z" fill="#F9BA8F"/>
<path d="M31.9576 51.1884L25.7903 43.7854V36.3823H38.1283V43.7854L31.9576 51.1884Z" fill="#FCAD6D"/>
<path d="M43.0639 21.5761C43.0639 12.1989 20.8547 15.4088 20.8547 21.5761V30.2132C20.8547 33.1583 22.0247 35.9828 24.1072 38.0653C26.1897 40.1478 29.0142 41.3177 31.9593 41.3177C34.9044 41.3177 37.7289 40.1478 39.8114 38.0653C41.894 35.9828 43.0639 33.1583 43.0639 30.2132V21.5761Z" fill="#F9BA8F"/>
<path d="M31.9594 10.4717C24.4336 10.4717 19.6213 16.5174 19.6213 24.0438V26.879L22.0888 28.9764V22.8091L36.8949 17.8736L41.8305 22.8091V28.9764L44.298 26.879V24.0438C44.298 19.1082 43.064 14.1732 36.8949 12.9392L35.6609 10.4717H31.9594Z" fill="#35355E"/>
<mask id="mask0_577_4510" style="mask-type:luminance" maskUnits="userSpaceOnUse" x="0" y="0" width="64" height="64">
<path d="M31.9994 63.9988C49.6722 63.9988 63.9988 49.6722 63.9988 31.9994C63.9988 14.3266 49.6722 0 31.9994 0C14.3266 0 0 14.3266 0 31.9994C0 49.6722 14.3266 63.9988 31.9994 63.9988Z" fill="white"/>
</mask>
<g mask="url(#mask0_577_4510)">
<path d="M38.1289 43.7854C36.1838 44.6288 34.0816 45.0495 31.9617 45.0194C29.8404 45.05 27.7368 44.6294 25.7903 43.7854C25.7903 43.7854 12.2183 46.2529 12.2183 59.825L31.7191 65.5419L51.701 59.825C51.701 46.2529 38.1289 43.7854 38.1289 43.7854Z" fill="#FFF5EE"/>
</g>
</svg>
