<svg width="32" height="25" viewBox="0 0 32 25" fill="none" xmlns="http://www.w3.org/2000/svg">
<g clip-path="url(#clip0_2_1829)">
<path d="M16.3145 4.87231H15.9785V5.42916H16.3145C16.3926 5.42916 16.4561 5.40356 16.502 5.35245C16.5498 5.30126 16.5742 5.23385 16.5742 5.15014C16.5742 5.06763 16.5498 5.00133 16.502 4.94903C16.4561 4.89791 16.3926 4.87231 16.3145 4.87231Z" fill="black"/>
<path d="M8.79688 6.03732C8.80569 6.00823 8.81444 5.97102 8.81837 5.92921C8.82425 5.8862 8.82719 5.83501 8.82913 5.77459C8.83106 5.71529 8.83106 5.64319 8.83106 5.55949C8.83106 5.47697 8.83106 5.40599 8.82913 5.34558C8.82719 5.28516 8.82425 5.23397 8.81837 5.19096C8.81444 5.14796 8.80569 5.11306 8.79688 5.08285C8.78712 5.05265 8.77344 5.02705 8.75681 5.00264C8.69725 4.91544 8.60938 4.87244 8.49019 4.87244H8.21875V6.24773H8.49025C8.60937 6.24773 8.69731 6.20354 8.75688 6.11753C8.77344 6.09312 8.78712 6.06634 8.79688 6.03732Z" fill="black"/>
<path d="M5.5137 5.35257C5.56057 5.30138 5.58501 5.23397 5.58501 5.15026C5.58501 5.06775 5.56057 5.00145 5.5137 4.94915C5.46682 4.89796 5.40432 4.87244 5.3252 4.87244H4.98926V5.42928H5.3252C5.40432 5.42928 5.46682 5.40369 5.5137 5.35257Z" fill="black"/>
<path d="M14.3672 5.89429H14.8213L14.5977 5.12695L14.3672 5.89429Z" fill="black"/>
<path d="M29.166 0H2.834C1.26956 0 0 1.51138 0 3.37381V21.6263C0 23.4887 1.26956 25 2.834 25H29.1661C30.7305 25 32 23.4887 32 21.6262V3.37381C32 1.51138 30.7305 0 29.166 0ZM27.2285 3.74353C28 3.74353 28.625 4.48757 28.625 5.40603C28.625 6.32448 28 7.06845 27.2285 7.06845C26.457 7.06845 25.832 6.32441 25.832 5.40595C25.832 4.4875 26.4571 3.74353 27.2285 3.74353ZM23.4922 3.74353C24.2637 3.74353 24.8887 4.48757 24.8887 5.40603C24.8887 6.32448 24.2637 7.06845 23.4922 7.06845C22.7207 7.06845 22.0957 6.32441 22.0957 5.40595C22.0957 4.4875 22.7207 3.74353 23.4922 3.74353ZM17.2988 4.5038H17.958C18.083 4.5038 18.1894 4.52939 18.2793 4.5782C18.3672 4.6282 18.4434 4.7061 18.5098 4.81302C18.5372 4.85833 18.5586 4.90603 18.5742 4.95722C18.5909 5.00722 18.6036 5.06183 18.6094 5.12232C18.6153 5.18281 18.6212 5.24903 18.6221 5.32113C18.6241 5.39323 18.6251 5.47344 18.6251 5.55945C18.6251 5.64665 18.6241 5.72686 18.6221 5.79896C18.6211 5.87106 18.6153 5.93616 18.6094 5.99658C18.6036 6.05699 18.5909 6.11287 18.5742 6.1628C18.5586 6.2128 18.5371 6.26161 18.5098 6.30699C18.4434 6.4128 18.3672 6.49182 18.2793 6.5407C18.1894 6.5907 18.083 6.6151 17.958 6.6151H17.2988V4.5038ZM12.3369 5.28743C12.3399 5.20603 12.3467 5.13162 12.3574 5.06302C12.3692 4.99442 12.3868 4.93162 12.4111 4.87582C12.4365 4.81771 12.4717 4.76191 12.5176 4.70841C12.5811 4.63862 12.6523 4.58281 12.7304 4.54449C12.8096 4.5061 12.9023 4.4875 13.0078 4.4875C13.1787 4.4875 13.3242 4.5433 13.4453 4.65491C13.5664 4.76652 13.6426 4.93162 13.6768 5.15365H13.3125C13.2949 5.06644 13.2617 4.99434 13.2129 4.93854C13.1641 4.88274 13.0957 4.85484 13.0078 4.85484C12.959 4.85484 12.9141 4.86414 12.876 4.88393C12.8369 4.90372 12.8057 4.93043 12.7793 4.96414C12.7617 4.98504 12.7481 5.01064 12.7373 5.03854C12.7266 5.06644 12.7168 5.10134 12.7099 5.14554C12.7031 5.18854 12.6972 5.24323 12.6953 5.30945C12.6914 5.37574 12.6894 5.45945 12.6894 5.55938C12.6894 5.66049 12.6914 5.7442 12.6953 5.81049C12.6972 5.87679 12.7031 5.9314 12.7099 5.97559C12.7167 6.01748 12.7266 6.05469 12.7373 6.0814C12.7481 6.1093 12.7617 6.1337 12.7793 6.1558C12.8057 6.18951 12.8369 6.2151 12.876 6.23601C12.9141 6.25461 12.959 6.2651 13.0078 6.2651C13.0957 6.2651 13.166 6.2372 13.2139 6.18021C13.2637 6.1244 13.2969 6.05231 13.3154 5.96629H13.6768C13.6426 6.1872 13.5664 6.35342 13.4453 6.46503C13.3242 6.57783 13.1787 6.63363 13.0078 6.63363C12.9023 6.63363 12.8096 6.61272 12.7304 6.57552C12.6523 6.53601 12.581 6.48132 12.5176 6.41042C12.4717 6.35692 12.4365 6.30112 12.4111 6.24531C12.3867 6.1872 12.3691 6.12441 12.3574 6.05699C12.3467 5.98839 12.3399 5.9128 12.3369 5.83259C12.335 5.75119 12.333 5.66049 12.333 5.55938C12.333 5.45945 12.3349 5.36875 12.3369 5.28743ZM10.1982 4.5038H11.5088V4.87232H11.0323V6.61503H10.6758V4.87232H10.1982V4.5038ZM9.55275 4.5038H9.90825V6.61503H9.55275V4.5038ZM7.86231 4.5038H8.5215C8.6465 4.5038 8.752 4.52939 8.84181 4.5782C8.93069 4.6282 9.00781 4.7061 9.07231 4.81302C9.09969 4.85833 9.12112 4.90603 9.13775 4.95722C9.15437 5.00722 9.16606 5.06183 9.17294 5.12232C9.17981 5.18281 9.18369 5.24903 9.18563 5.32113C9.18756 5.39323 9.18756 5.47344 9.18756 5.55945C9.18756 5.64665 9.18756 5.72686 9.18563 5.79896C9.18369 5.87106 9.17975 5.93616 9.17294 5.99658C9.16612 6.05699 9.15437 6.11287 9.13775 6.1628C9.12112 6.21272 9.09969 6.26161 9.07231 6.30699C9.00787 6.4128 8.93069 6.49182 8.84181 6.5407C8.75194 6.5907 8.6465 6.6151 8.5215 6.6151H7.86231V4.5038ZM6.31056 4.5038H7.51175V4.87232H6.66606V5.36644H7.38675V5.73497H6.66606V6.24769H7.51175V6.6151H6.31056V4.5038ZM4.63281 4.5038H5.34863C5.44138 4.5038 5.52344 4.5224 5.59669 4.5561C5.66994 4.591 5.73244 4.6375 5.78419 4.69561C5.83594 4.75372 5.875 4.82232 5.90037 4.90022C5.92775 4.97812 5.94137 5.06183 5.94137 5.15015C5.94137 5.22574 5.93163 5.29315 5.914 5.35246C5.89544 5.41176 5.871 5.46406 5.84175 5.51057C5.8105 5.55707 5.77531 5.59658 5.73431 5.62917C5.69425 5.66176 5.65225 5.68728 5.60738 5.70476L6.01556 6.61503H5.6015L5.246 5.77329H4.98919V6.61503H4.63275L4.63281 4.5038ZM3.7715 14.7135V13.0859H5.84963V14.7135H3.7715ZM5.84963 15.2344V16.9922H4.70119C4.1875 16.9922 3.7715 16.4969 3.7715 15.8854V15.2344H5.84963ZM3.7715 12.5651V10.9375H5.84963V12.5651H3.7715ZM3.7715 10.4167V9.76562C3.7715 9.15409 4.1875 8.65885 4.70119 8.65885H5.84963V10.4167H3.7715ZM2.9805 5.55945C2.9805 5.45945 2.98244 5.36875 2.98444 5.28743C2.98737 5.20603 2.99419 5.13162 3.00594 5.06302C3.01669 4.99442 3.03525 4.93162 3.05869 4.87582C3.08406 4.81771 3.11925 4.76191 3.16613 4.70841C3.22863 4.63862 3.29894 4.58281 3.379 4.54449C3.45712 4.5061 3.54988 4.4875 3.65538 4.4875C3.82625 4.4875 3.97275 4.5433 4.09387 4.65491C4.214 4.76652 4.29019 4.93162 4.32438 5.15365H3.96106C3.9425 5.06644 3.90931 4.99434 3.86144 4.93854C3.81263 4.88274 3.74425 4.85484 3.65538 4.85484C3.60556 4.85484 3.56262 4.86414 3.52356 4.88393C3.4845 4.90372 3.45325 4.93043 3.42788 4.96414C3.41031 4.98504 3.39663 5.01064 3.38488 5.03854C3.37413 5.06644 3.36531 5.10134 3.3575 5.14554C3.35069 5.18854 3.34575 5.24323 3.34288 5.30945C3.34 5.37567 3.338 5.45945 3.338 5.55938C3.338 5.66049 3.33994 5.7442 3.34288 5.81049C3.34581 5.87679 3.35069 5.9314 3.3575 5.97559C3.36531 6.01748 3.37413 6.05469 3.38488 6.0814C3.39663 6.1093 3.41025 6.1337 3.42788 6.1558C3.45325 6.18951 3.4845 6.2151 3.52356 6.23601C3.56262 6.25461 3.60563 6.2651 3.65538 6.2651C3.74425 6.2651 3.81356 6.2372 3.86144 6.18021C3.91125 6.1244 3.94444 6.05231 3.963 5.96629H4.32431C4.29013 6.1872 4.21394 6.35342 4.09381 6.46503C3.97269 6.57783 3.82625 6.63363 3.65531 6.63363C3.54981 6.63363 3.45706 6.61272 3.37894 6.57552C3.29887 6.53601 3.22856 6.48132 3.16606 6.41042C3.11919 6.35692 3.084 6.30112 3.05862 6.24531C3.03519 6.1872 3.01663 6.12441 3.00588 6.05699C2.99413 5.98839 2.98731 5.9128 2.98438 5.83259C2.98244 5.75126 2.9805 5.66056 2.9805 5.55945ZM8 21.031H3V19.8405H8V21.031ZM8.25587 10.4167V10.9375V11.6094V11.6536V12.5651V13.0859V13.8021V14.2136V14.7135V15.2344V16.2318V16.9922H6.28713V16.2318V15.2344V14.7135V14.2136V13.8021V13.0859V12.5651V11.6536V11.6094V10.9375V10.4167V9.85164V8.65885H7.43556H8.25587H8.584H9.62306H9.84081C10.3545 8.65885 10.7715 9.15409 10.7715 9.76562V10.4167H9.62306H8.584H8.25587ZM8.69337 12.5651V10.9375H10.7715V12.5651H8.69337ZM10.7715 13.0859V14.7135H8.69337V13.0859H10.7715ZM8.69337 16.9922V15.2344H10.7715V15.8854C10.7715 16.4969 10.3545 16.9922 9.84081 16.9922H8.69337ZM15 21.031H10V19.8405H15V21.031ZM15.0234 6.61503L14.916 6.24182H14.2676L14.1562 6.61503H13.7851L14.4492 4.5038H14.7285L15.3965 6.61503H15.0234ZM16.2344 5.77336H15.9785V6.6151H15.6221V4.50387H16.3379C16.4297 4.50387 16.5127 4.52247 16.5859 4.55618C16.6592 4.59107 16.7217 4.63757 16.7734 4.69568C16.8243 4.75379 16.8633 4.8224 16.8896 4.9003C16.917 4.9782 16.9297 5.0619 16.9297 5.15022C16.9297 5.22582 16.9209 5.29323 16.9023 5.35253C16.8848 5.41183 16.8603 5.46414 16.8301 5.51064C16.7988 5.55714 16.7636 5.59665 16.7236 5.62924C16.6836 5.66183 16.6406 5.68735 16.5957 5.70484L17.0039 6.6151H16.5908L16.2344 5.77336ZM22 21.031H17V19.8405H22V21.031ZM29 21.031H24V19.8405H29V21.031ZM29 17.4595H19V16.269H29V17.4595Z" fill="white"/>
<path d="M18.2344 6.03732C18.2422 6.00823 18.251 5.97102 18.2559 5.92921C18.2608 5.8862 18.2637 5.83501 18.2656 5.77459C18.2676 5.71529 18.2676 5.64319 18.2676 5.55949C18.2676 5.47697 18.2676 5.40599 18.2656 5.34558C18.2637 5.28516 18.2608 5.23397 18.2559 5.19096C18.251 5.14796 18.2422 5.11306 18.2344 5.08285C18.2246 5.05265 18.211 5.02705 18.1934 5.00264C18.1348 4.91544 18.045 4.87244 17.9268 4.87244H17.6553V6.24773H17.9268C18.045 6.24773 18.1348 6.20354 18.1934 6.11753C18.211 6.09312 18.2246 6.06634 18.2344 6.03732Z" fill="black"/>
</g>
<defs>
<clipPath id="clip0_2_1829">
<rect width="32" height="25" fill="white"/>
</clipPath>
</defs>
</svg>
