<svg width="71" height="16" viewBox="0 0 71 16" fill="none" xmlns="http://www.w3.org/2000/svg">
<g clip-path="url(#clip0_442_1794)">
<path d="M70.9998 0V16H0V0H70.9998Z" fill="#FFCC00"/>
<path d="M12.4858 2.87354L10.2174 6.02056H22.5804C23.2053 6.02056 23.1971 6.26303 22.8917 6.68552C22.5815 7.11455 22.0624 7.86044 21.7464 8.29597C21.5861 8.51714 21.2962 8.91989 22.2568 8.91989H27.3126C27.3126 8.91989 28.1275 7.78756 28.8105 6.84094C29.7399 5.55325 28.891 2.87354 25.5689 2.87354H12.4858Z" fill="#BF190E"/>
<path d="M9.29953 13.1259L13.8557 6.8042C13.8557 6.8042 18.9066 6.80425 19.5098 6.80425C20.1347 6.80425 20.1265 7.04672 19.8211 7.46926C19.511 7.89831 18.9832 8.63625 18.6673 9.07199C18.5069 9.29303 18.217 9.69652 19.1776 9.69652H26.7521C26.1223 10.5777 24.0789 13.1259 20.4098 13.1259H9.29953Z" fill="#BF190E"/>
<path d="M35.3932 9.6958L32.9224 13.1259H26.4048C26.4048 13.1259 28.8742 9.69654 28.8764 9.69654L35.3932 9.6958Z" fill="#BF190E"/>
<path d="M45.3781 8.91944H29.4364L33.7957 2.87305H40.3114L37.8128 6.34019H40.7213L43.2209 2.87305H49.7359L45.3781 8.91944Z" fill="#BF190E"/>
<path d="M44.8183 9.69629L42.3464 13.1256H35.8312C35.8312 13.1256 38.3007 9.69629 38.3029 9.69629H44.8183Z" fill="#BF190E"/>
<path d="M0 11.0488H9.60134L9.07673 11.7775H0V11.0488Z" fill="#BF190E"/>
<path d="M0 9.69629H10.5768L10.0513 10.4239H0V9.69629Z" fill="#BF190E"/>
<path d="M0 12.4019H8.62638L8.10439 13.1258H0V12.4019Z" fill="#BF190E"/>
<path d="M71.0001 11.7775H61.4354L61.9603 11.0488H71.0001V11.7775Z" fill="#BF190E"/>
<path d="M70.9999 13.1258L60.463 13.1267L60.9849 12.4019H70.9999V13.1258Z" fill="#BF190E"/>
<path d="M62.9345 9.69629H71V10.4243L62.4103 10.4248L62.9345 9.69629Z" fill="#BF190E"/>
<path d="M58.7595 2.87354L54.4007 8.91989H47.4968C47.4968 8.91989 51.8564 2.87354 51.8586 2.87354H58.7595Z" fill="#BF190E"/>
<path d="M46.9379 9.69629C46.9379 9.69629 46.4617 10.3609 46.2303 10.6804C45.4118 11.8097 46.1354 13.1256 48.8062 13.1256H59.27L61.7417 9.69629H46.9379Z" fill="#BF190E"/>
</g>
<defs>
<clipPath id="clip0_442_1794">
<rect width="71" height="16" fill="white"/>
</clipPath>
</defs>
</svg>
