<svg width="61" height="17" viewBox="0 0 61 17" fill="none" xmlns="http://www.w3.org/2000/svg">
<g clip-path="url(#clip0_442_1815)">
<path d="M0.00792339 0.0115184C3.37435 -0.0104495 6.74079 0.0062461 10.1081 0.00362753C10.1218 1.23207 10.1215 2.46052 10.1072 3.68895C8.26567 3.69952 6.42352 3.69952 4.58077 3.68895C4.56798 4.45432 4.57255 5.21968 4.57803 5.98503C6.27355 5.97362 7.96818 5.98241 9.66371 5.9789C9.67101 6.65548 9.66646 7.33211 9.6628 8.00874C10.0524 7.45508 10.5233 6.95872 11.0608 6.53513C11.9555 5.89532 13.0123 5.49894 14.1207 5.38752C15.2166 5.3269 16.35 5.3102 17.3904 5.69769C18.719 6.11422 19.8232 7.07991 20.4629 8.26708C20.6359 8.59873 20.7897 8.93931 20.9238 9.28726C21.3709 7.87427 22.3875 6.61597 23.7582 5.93406C25.0104 5.33368 26.4533 5.21583 27.7926 5.60454C28.4552 5.80577 29.0227 6.20737 29.4964 6.68891C29.5028 4.4596 29.4991 2.23118 29.4973 0.0018701C30.8397 0.00714239 32.1811 -0.00954443 33.5226 0.0124235C33.4925 3.19159 33.5189 6.37166 33.5098 9.55087C33.5153 11.8224 33.5007 14.0947 33.5171 16.3662C32.1957 16.4066 30.8743 16.3829 29.5529 16.382C29.5456 16.0261 29.5435 15.6708 29.5466 15.3161L29.5128 15.3645C28.906 16.1316 28.0527 16.7423 27.0562 16.9286C25.7955 17.1326 24.501 16.8833 23.4187 16.2283C21.892 15.3056 20.8763 13.6738 20.681 11.9568C18.1852 11.9497 15.6894 11.9585 13.1935 11.9515C13.0539 11.9603 12.9024 11.9366 12.7746 12.0016C12.8021 12.3546 12.9115 12.6972 13.0947 13.0041C13.2779 13.3109 13.5303 13.5743 13.8332 13.7748C14.5249 14.2362 15.4603 14.2564 16.2214 13.948C16.5545 13.7775 16.7899 13.4805 17.0281 13.2072C18.3257 13.2239 19.6243 13.2002 20.9219 13.2151C20.4054 14.5367 19.4199 15.7274 18.0802 16.3425C16.8374 16.9277 15.3991 17.0525 14.0394 16.8882C12.4388 16.6843 10.9185 15.8592 9.96941 14.5921C9.21314 13.5879 8.8198 12.3726 8.8497 11.1326C8.82599 10.5922 8.93367 10.0596 8.99937 9.52539C7.5256 9.52101 6.0518 9.52453 4.57803 9.52362C4.57255 11.8197 4.57224 14.1161 4.57712 16.4127C3.05406 16.4356 1.53006 16.4127 0.00609827 16.4242C0.000613789 10.9533 0.00122216 5.48241 0.00792339 0.0115184ZM13.8268 8.22224C13.3559 8.52366 13.0904 9.0245 12.9179 9.52715C14.347 9.53594 15.7742 9.56495 17.2024 9.52715C17.0618 9.12559 16.9122 8.6994 16.5745 8.40768C15.8445 7.76092 14.6408 7.66249 13.8268 8.22224ZM26.5789 8.3927C25.5751 8.6256 24.9327 9.57198 24.8003 10.5139C24.5731 11.535 24.8688 12.7064 25.7129 13.3979C26.5178 14.0701 27.8428 14.0332 28.6149 13.3294C29.3394 12.5983 29.4781 11.5104 29.3458 10.5473C29.2217 9.8927 28.9853 9.19852 28.4259 8.76792C27.914 8.36547 27.2141 8.26708 26.5789 8.39271V8.3927Z" fill="#312280"/>
<path d="M33.5221 0.0126953C36.6823 0.0232048 39.8419 0.0234918 43.0009 0.0135565C43.0027 1.23496 43.0054 2.45551 42.9991 3.67692C41.1831 3.71999 39.3643 3.68657 37.5465 3.6936C37.5365 4.45987 37.4762 5.23488 37.5903 5.99586C39.3999 5.98355 41.2086 5.99148 43.0182 5.99148C42.9808 7.16368 43.0191 8.33763 42.9963 9.51072C41.1949 9.51776 39.3944 9.51425 37.593 9.51249C37.4771 10.1346 37.5492 10.7682 37.5301 11.3964C37.5319 11.8481 37.5018 12.3042 37.5876 12.7523C39.3753 12.7409 41.1639 12.7286 42.9516 12.7549C43.072 13.1003 42.9726 13.4931 43.0018 13.8569C43.0374 14.6442 42.9178 15.4456 43.0949 16.2215C43.7419 15.6055 44.304 14.9122 44.941 14.2866C45.4739 13.6319 46.089 13.0476 46.6475 12.414C47.0143 12.0124 47.4441 11.6583 47.7498 11.2084C47.7057 11.1228 47.6512 11.0426 47.5874 10.9694C46.683 9.99312 45.7778 9.01833 44.8716 8.04502C44.2748 7.35173 43.5822 6.73574 43.0319 6.00727C44.2182 5.96951 45.4073 5.99938 46.5945 5.98972C47.08 6.00023 47.5673 5.96424 48.0519 6.00727C48.9197 6.77088 49.595 7.72429 50.4948 8.45979C51.1245 7.75153 51.7879 7.07405 52.4002 6.35172C52.5554 6.19092 52.7078 5.94665 52.9733 5.98883C54.5165 6.00023 56.0605 5.96951 57.6037 6.00551C57.4043 6.30275 57.1727 6.57875 56.9128 6.82888C55.5841 8.27087 54.2263 9.68823 52.925 11.1522C53.3968 11.8578 54.094 12.3973 54.6369 13.0537C55.3944 13.8191 56.1125 14.6187 56.8517 15.4007C57.1474 15.7355 57.4786 16.044 57.7186 16.421C56.1691 16.4438 54.6177 16.4201 53.0673 16.4306C52.8857 16.421 52.6685 16.4605 52.5335 16.3129C51.7779 15.4957 51.0369 14.6618 50.2521 13.8692C49.5731 14.6161 48.8586 15.3322 48.2061 16.102C48.0665 16.2514 47.9287 16.4649 47.6868 16.428C41.6266 16.4324 35.5657 16.4295 29.5041 16.4192C29.4977 16.0677 29.4868 15.7153 29.5123 15.3647L29.5461 15.3164C29.5425 15.6714 29.5446 16.0267 29.5525 16.3823C30.8739 16.3832 32.1953 16.4069 33.5166 16.3665C33.5002 14.095 33.5148 11.8226 33.5093 9.55114C33.5185 6.37193 33.492 3.19186 33.5221 0.0126953Z" fill="#FF5F00"/>
<path d="M59.6714 14.3031C60.3093 14.1195 61.0923 14.6854 60.991 15.3497C61.1105 16.159 60.0054 16.651 59.353 16.2416C58.5079 15.8593 58.7406 14.4367 59.6714 14.3031ZM59.6824 14.5184C59.3274 14.6212 58.9943 14.9718 59.0445 15.3497C58.9961 15.9613 59.7983 16.3909 60.3348 16.1001C60.9007 15.854 60.9682 14.9876 60.4635 14.6502C60.2345 14.5026 59.948 14.492 59.6824 14.5184V14.5184Z" fill="#FF5F00"/>
<path d="M59.4797 14.6916C59.7635 14.7004 60.0747 14.6362 60.3357 14.7733C60.3322 15.1409 60.3492 15.5085 60.3868 15.8743C60.364 15.9235 60.3193 16.0211 60.2964 16.0703C60.1468 15.8154 60.0866 15.4991 59.8183 15.3278C59.7535 15.5562 59.6978 15.7882 59.6349 16.0175C59.3574 15.6327 59.5464 15.1292 59.4797 14.6916ZM59.7544 14.9315C59.7581 15.0316 59.7626 15.1318 59.7672 15.2329C59.8612 15.2249 59.9561 15.2179 60.051 15.2118C60.0628 15.1195 60.0747 15.0281 60.0875 14.9367C59.9752 14.935 59.8648 14.9332 59.7544 14.9315Z" fill="#FF5F00"/>
</g>
<defs>
<clipPath id="clip0_442_1815">
<rect width="61" height="17" fill="white"/>
</clipPath>
</defs>
</svg>
