<svg width="82" height="11" viewBox="0 0 82 11" fill="none" xmlns="http://www.w3.org/2000/svg">
<g clip-path="url(#clip0_442_1827)">
<path d="M14.4899 10.2501L16.6756 0H2.18576L0 10.2501H14.4899Z" fill="white"/>
<path fill-rule="evenodd" clip-rule="evenodd" d="M10.7745 2.14986C12.4574 2.54083 12.501 2.95336 12.501 2.95336C13.5937 2.95336 13.878 2.95336 14.0746 3.14879C14.7084 3.73519 13.6375 5.16845 13.6375 5.16845C13.5065 5.25531 1.44238 9.94596 1.44238 9.94596H14.1402L16.1727 0.412598H2.53512C2.53512 0.412598 10.5778 2.10637 10.7745 2.14986Z" fill="#333366"/>
<path fill-rule="evenodd" clip-rule="evenodd" d="M12.0203 3.53962C11.7367 3.63566 11.4436 3.70122 11.146 3.73517C10.9712 3.75683 10.8838 3.75683 10.8838 3.80022C10.8838 3.86553 11.1241 3.84371 11.2116 3.84371C11.6051 3.84371 13.1568 3.73517 13.5283 3.80022C13.8124 3.84371 13.4845 4.40829 13.3971 4.75576C13.3753 4.88601 13.4627 4.82094 13.5065 4.75576C13.6959 4.45885 13.8429 4.13727 13.9434 3.80022C13.9872 3.36598 13.6812 3.30082 13.1568 3.30082H12.348C12.325 3.29755 12.3016 3.30224 12.2817 3.31411C12.2618 3.32599 12.2467 3.34431 12.2388 3.36601C12.1733 3.43105 12.0641 3.49613 12.0203 3.53963L12.0203 3.53962Z" fill="#333366"/>
<path fill-rule="evenodd" clip-rule="evenodd" d="M6.99379 6.75399L0.502747 9.9462L2.07637 2.62793H8.63276C8.742 2.62793 12.1514 2.62793 12.2171 3.30109H6.31622L7.23398 6.08074C8.2832 5.58121 10.862 4.53892 12.4137 4.4736C13.0694 4.45193 13.3315 4.56047 13.2005 4.64748C13.1131 4.69083 12.4793 4.77771 11.9765 4.90809C11.3552 5.04722 10.7422 5.22119 10.1407 5.42916C9.06753 5.81177 8.01691 6.25408 6.9938 6.75399H6.99379Z" fill="#333366"/>
<path fill-rule="evenodd" clip-rule="evenodd" d="M20.5874 10.1633C18.0522 10.1633 16.5442 9.16421 17.0469 6.92757C17.8774 3.06213 18.4238 0.478027 18.4238 0.478027H20.5437C20.5437 0.478027 19.2543 6.42806 19.2978 6.29784C18.9701 7.77446 19.2978 8.66484 20.9152 8.66484C22.4669 8.66484 23.2537 7.77445 23.5815 6.29784C23.7781 5.45083 24.8272 0.478027 24.8272 0.478027H26.9472C25.5266 6.92759 26.9472 0.478027 25.5484 6.92759C25.0239 9.14267 23.1007 10.1633 20.5874 10.1633V10.1633Z" fill="#333366"/>
<path fill-rule="evenodd" clip-rule="evenodd" d="M38.2683 6.36301C37.8074 6.35835 37.3474 6.32209 36.8915 6.25447L37.1537 4.88626C37.416 4.90807 37.7656 4.95156 38.0935 4.95156C38.5723 4.98946 39.0485 4.85108 39.4313 4.56276C39.8142 4.27443 40.0769 3.85629 40.1696 3.38793C40.3881 2.3455 39.8637 1.97636 39.0987 1.97636H37.3722L35.6675 9.98956H33.5475L35.5801 0.478027H40.1696C42.2458 0.478027 42.4863 2.28044 42.224 3.47479C41.8306 5.25554 40.1477 6.36301 38.2683 6.36301H38.2683Z" fill="#333366"/>
<path fill-rule="evenodd" clip-rule="evenodd" d="M33.788 1.99766H31.5368C30.3786 1.99766 29.8759 2.2366 29.7665 2.69261C29.4387 4.21277 33.5693 5.40712 33.1759 7.75243C32.9573 9.05533 31.8209 9.98921 29.1764 9.98921H25.942L26.2697 8.46907H28.8486C29.6573 8.46907 30.6407 8.51257 30.8156 7.70893C31.1215 6.34098 27.0565 4.99444 27.3624 2.71432C27.5591 1.34622 28.783 0.477539 31.2527 0.477539L34.0938 0.477675L33.788 1.99766H33.788Z" fill="#333366"/>
<path fill-rule="evenodd" clip-rule="evenodd" d="M49.5454 1.99766H47.2945C46.136 1.99766 45.6334 2.2366 45.524 2.69261C45.1963 4.21277 49.3269 5.40712 48.9334 7.75243C48.7149 9.05533 47.5784 9.98921 44.934 9.98921H41.6993L42.0273 8.46907H44.628C45.4367 8.46907 46.4202 8.51257 46.595 7.70893C46.901 6.34098 42.8359 4.99444 43.1419 2.71432C43.3386 1.34622 44.5625 0.477539 47.0322 0.477539L49.8731 0.477675L49.5454 1.99766Z" fill="#333366"/>
<path fill-rule="evenodd" clip-rule="evenodd" d="M50.2665 8.29541C50.098 8.29544 49.9332 8.34513 49.793 8.4382C49.6529 8.53127 49.5437 8.66355 49.4792 8.8183C49.4147 8.97305 49.3979 9.14332 49.4308 9.30759C49.4637 9.47186 49.5448 9.62275 49.6641 9.74117C49.7833 9.85959 49.9351 9.94024 50.1004 9.9729C50.2658 10.0056 50.4371 9.98878 50.5929 9.92468C50.7486 9.86057 50.8817 9.75202 50.9753 9.61275C51.069 9.47348 51.1189 9.30975 51.1189 9.14226C51.1187 8.91772 51.0288 8.70246 50.869 8.5437C50.7091 8.38494 50.4925 8.29564 50.2665 8.29541Z" fill="#333366"/>
<path fill-rule="evenodd" clip-rule="evenodd" d="M81.9999 0.43457L79.9235 9.96766H78.1532L79.7272 2.88846L75.5092 9.96766H73.6952L72.6898 3.34429L71.2256 9.96766H69.4772L71.5094 0.43457H74.0446L75.1156 7.44859L79.2242 0.43457H81.9999Z" fill="#333366"/>
<path fill-rule="evenodd" clip-rule="evenodd" d="M55.8613 10.163C54.7156 10.2129 53.5834 9.90118 52.6269 9.27247C52.1886 8.94177 51.8381 8.50984 51.6058 8.01413C51.3735 7.51841 51.2664 6.97388 51.2937 6.42773C51.2945 6.00341 51.3458 5.58067 51.4466 5.16835C52.146 1.75889 55.009 0.23877 57.9157 0.23877C58.6348 0.245432 59.3518 0.318114 60.0575 0.455889L60.2106 0.477699L59.861 2.0195L59.7298 1.99769C59.2489 1.95434 58.921 1.91096 58.484 1.91096C58.0897 1.9116 57.6957 1.93332 57.3037 1.97603C56.618 2.03092 55.9605 2.27124 55.4024 2.67095C54.815 3.03709 54.3279 3.54204 53.9847 4.14074C53.6415 4.73944 53.4528 5.41327 53.4354 6.10207C53.4165 6.46385 53.4958 6.82403 53.665 7.14493C53.8342 7.46582 54.087 7.73565 54.3971 7.92618C55.1381 8.35637 55.9873 8.56734 56.8448 8.53427C57.3271 8.53847 57.809 8.50948 58.2873 8.44752L58.5059 8.42573L58.178 9.92416L58.0688 9.94597C57.341 10.0837 56.6022 10.1563 55.8613 10.163H55.8613Z" fill="#333366"/>
<path fill-rule="evenodd" clip-rule="evenodd" d="M65.5214 0.412598C62.5928 0.412598 60.1669 1.93274 59.4676 5.25531C58.8993 7.92629 60.5385 10.1197 63.4452 10.1197C66.3956 10.1197 68.7558 8.66474 69.499 5.25531C70.0673 2.47565 68.4063 0.412598 65.5214 0.412598ZM67.532 5.27699C67.0731 7.66569 65.6306 8.68645 63.8167 8.68645C62.0246 8.68645 61.0411 7.14451 61.369 5.27701C61.806 2.93157 63.2922 1.88928 65.0841 1.88928C66.8764 1.86759 67.9035 3.32254 67.532 5.27701V5.27699Z" fill="#333366"/>
</g>
<defs>
<clipPath id="clip0_442_1827">
<rect width="82" height="10.25" fill="white"/>
</clipPath>
</defs>
</svg>
